<svg xmlns="http://www.w3.org/2000/svg" xmlns:xlink="http://www.w3.org/1999/xlink" width="348" height="80" viewBox="0 0 348 80">
    <defs>
        <path id="a" d="M.336 38V3.312H12.43c4.218 0 7.23.708 9.035 2.122 1.805 1.414 2.707 3.777 2.707 7.09 0 3.75-1.207 6.667-3.621 8.753-2.414 2.086-5.793 3.13-10.137 3.13h-3V38H.336zm7.078-18.352H8.82c2.47 0 4.418-.574 5.848-1.722 1.43-1.149 2.145-2.707 2.145-4.676 0-3.453-2.196-5.18-6.586-5.18H7.414v11.578zm33.164 18.938c-4.016 0-7.207-1.215-9.574-3.645-2.367-2.43-3.55-5.699-3.55-9.808 0-4.156 1.19-7.438 3.573-9.844 2.383-2.406 5.621-3.61 9.715-3.61 4.11 0 7.356 1.204 9.738 3.61 2.383 2.406 3.575 5.672 3.575 9.797 0 4.219-1.196 7.523-3.586 9.914-2.39 2.39-5.688 3.586-9.89 3.586zm.117-4.336c3.985 0 5.977-3.055 5.977-9.164 0-2.797-.527-5.008-1.582-6.633-1.055-1.625-2.504-2.437-4.348-2.437-1.828 0-3.27.812-4.324 2.437-1.055 1.625-1.582 3.852-1.582 6.68 0 2.797.523 5.015 1.57 6.656 1.047 1.64 2.477 2.461 4.29 2.461zM60.43 38V12.266h6.937v4.851c1.797-3.625 4.531-5.437 8.203-5.437.438 0 .867.047 1.29.14v6.188c-.985-.36-1.9-.54-2.743-.54-2.765 0-5.015 1.4-6.75 4.196V38H60.43zm35.086-.14c-1.657.484-2.961.726-3.914.726-6.016 0-9.024-2.813-9.024-8.438V16.602h-2.883v-4.336h2.883V7.93l6.938-.797v5.133h5.507v4.336h-5.507v12.632c0 3.157 1.289 4.735 3.867 4.735.594 0 1.304-.11 2.133-.328v4.218zm18.796-2.626c-2.312 2.235-4.789 3.352-7.43 3.352-2.25 0-4.077-.688-5.484-2.063-1.406-1.375-2.109-3.156-2.109-5.343 0-2.844 1.137-5.035 3.41-6.575 2.274-1.539 5.528-2.308 9.762-2.308h1.852v-2.344c0-2.672-1.524-4.008-4.57-4.008-2.704 0-5.438.766-8.204 2.297v-4.781c3.14-1.188 6.25-1.781 9.328-1.781 6.735 0 10.102 2.68 10.102 8.039v11.39c0 2.016.648 3.024 1.945 3.024.234 0 .54-.031.914-.094l.164 3.89c-1.469.438-2.765.657-3.89.657-2.844 0-4.672-1.117-5.485-3.352h-.305zm0-3.726V26.28h-1.64c-4.485 0-6.727 1.406-6.727 4.219 0 .953.325 1.754.973 2.402.648.649 1.45.973 2.402.973 1.625 0 3.29-.79 4.993-2.367zM129.923 38V.992h6.937V38h-6.937z"/>
        <filter id="b" width="110.3%" height="137.2%" x="-5.1%" y="-13.3%" filterUnits="objectBoundingBox">
            <feOffset dy="2" in="SourceAlpha" result="shadowOffsetOuter1"/>
            <feGaussianBlur in="shadowOffsetOuter1" result="shadowBlurOuter1" stdDeviation="2"/>
            <feColorMatrix in="shadowBlurOuter1" values="0 0 0 0 0 0 0 0 0 0 0 0 0 0 0 0 0 0 0.203379755 0"/>
        </filter>
        <filter id="d" width="111.1%" height="148.3%" x="-5.6%" y="-17.2%" filterUnits="objectBoundingBox">
            <feOffset dy="2" in="SourceAlpha" result="shadowOffsetOuter1"/>
            <feGaussianBlur in="shadowOffsetOuter1" result="shadowBlurOuter1" stdDeviation="2"/>
            <feColorMatrix in="shadowBlurOuter1" result="shadowMatrixOuter1" values="0 0 0 0 0 0 0 0 0 0 0 0 0 0 0 0 0 0 0.198963995 0"/>
            <feMerge>
                <feMergeNode in="shadowMatrixOuter1"/>
                <feMergeNode in="SourceGraphic"/>
            </feMerge>
        </filter>
    </defs>
    <g fill="none" fill-rule="evenodd">
        <g transform="translate(184 26)">
            <mask id="c" fill="#fff">
                <use xlink:href="#a"/>
            </mask>
            <use fill="#000" filter="url(#b)" xlink:href="#a"/>
            <use fill="#FFF" xlink:href="#a"/>
            <path fill="#60D4FF" d="M-16.175-9.715L6.01-9.717v37.594h-22.186z" mask="url(#c)" transform="rotate(30 -5.082 9.08)"/>
        </g>
        <g filter="url(#d)" transform="translate(44 23)">
            <path fill="#FEFEFE" d="M34 8h6V3h-6z"/>
            <path fill="#A1CC56" d="M34 8h6v19h-6z"/>
            <path fill="#FEFEFE" d="M1 8h6.074l3.758 11.925h.076L14.058 8h6.226L23.7 19.925h.076L27.229 8H33l-6.567 19h-5.618l-3.833-12.627h-.077L13.49 27H7.757z"/>
            <g fill="#FEFEFE">
                <path d="M53.89 13.337c-.83-1.036-1.924-1.572-3.281-1.572-.943 0-2.076.422-2.076 1.534 0 2.762 9.545.421 9.545 7.517 0 4.757-4.528 6.136-8.45 6.136-2.566 0-5.395-.652-7.206-2.53l3.433-3.873c1.056 1.303 2.302 2.032 3.998 2.032 1.283 0 2.566-.345 2.566-1.342 0-2.991-9.544-.46-9.544-7.556 0-4.373 3.848-6.291 7.696-6.291 2.414 0 5.093.613 6.79 2.454l-3.47 3.491zM71.934 12.455h-4.981v6.213c0 1.996.228 3.452 2.678 3.452.605 0 1.811-.077 2.303-.536v4.792c-1.245.461-2.641.575-3.961.575-3.773 0-6.677-1.571-6.677-5.636v-8.86h-3.623V7.852h3.623v-4.67h5.657v4.67h4.981v4.603zM73.922 7.852h5.658v2.99h.076c1.208-2.26 2.792-3.45 5.282-3.45.64 0 1.357.039 1.886.19v5.257c-.793-.23-1.584-.384-2.415-.384-4.3 0-4.83 2.532-4.83 6.251v7.786h-5.657V7.852zM86.218 17.174c0 5.942 4.526 9.777 10.185 9.777 5.66 0 10.186-3.835 10.186-9.777 0-5.947-4.527-9.782-10.186-9.782s-10.185 3.835-10.185 9.782m5.658 0c0-2.8 1.698-4.719 4.527-4.719 2.828 0 4.527 1.919 4.527 4.719 0 2.798-1.699 4.717-4.527 4.717-2.83 0-4.527-1.919-4.527-4.717M108.194 7.852h5.432v2.532h.075c.754-1.459 2.602-2.992 5.355-2.992 5.736 0 6.792 3.835 6.792 8.822v10.278h-5.658v-9.126c0-2.148-.038-4.911-2.943-4.911-2.944 0-3.395 2.34-3.395 4.757v9.28h-5.658V7.852z"/>
            </g>
        </g>
    </g>
</svg>
