<?xml version="1.0"?>
<svg xmlns="http://www.w3.org/2000/svg" viewBox="0 0 50 50">
    <path style="text-indent:0;text-align:start;line-height:normal;text-transform:none;block-progression:tb;-inkscape-font-specification:Sans" d="M 25 2 C 12.358697 2 2 11.359516 2 23 C 2 27.948641 3.9079544 32.484101 7.03125 36.0625 L 7 36.0625 C 7.392307 36.718802 7.4398613 37.500137 7.21875 38.46875 C 6.9976387 39.437363 6.4977242 40.527936 5.90625 41.53125 C 5.3147758 42.534564 4.655331 43.443181 4.125 44.15625 C 3.8598345 44.512785 3.6154677 44.812666 3.4375 45.0625 C 3.348516 45.187417 3.2899491 45.31714 3.21875 45.4375 C 3.1475509 45.55786 3 45.551621 3 46.09375 C 3 46.509708 3.1624594 47.015282 3.5625 47.40625 C 3.9625406 47.797218 4.5337614 48 5.1875 48 C 9.7985233 48 13.990787 44.576082 17.1875 42.6875 C 19.635009 43.498598 22.248085 44 25 44 C 37.641303 44 48 34.640484 48 23 C 48 11.359516 37.641303 2 25 2 z M 25 4 C 36.658697 4 46 12.548484 46 23 C 46 33.451516 36.658697 42 25 42 C 22.297212 42 19.714343 41.528122 17.34375 40.6875 L 16.90625 40.53125 L 16.53125 40.78125 C 13.062594 42.766144 8.8849167 45.965583 5.25 46 C 5.3877088 45.812985 5.52041 45.641683 5.71875 45.375 C 6.2615752 44.645132 6.9718492 43.639186 7.625 42.53125 C 8.2781508 41.423314 8.8942051 40.191074 9.1875 38.90625 C 9.4807949 37.621426 9.443943 36.244448 8.71875 35.03125 L 8.65625 34.9375 L 8.625 34.875 C 5.7340372 31.61101 4 27.490979 4 23 C 4 12.548484 13.341303 4 25 4 z M 16.34375 12 A 1.0001 1.0001 0 0 0 15.5625 12.6875 L 12.53125 21.4375 A 1.0019512 1.0019512 0 0 0 12.34375 22 L 11.0625 25.6875 A 1.0001 1.0001 0 1 0 12.9375 26.3125 L 14.09375 23 L 18.90625 23 L 20.0625 26.3125 A 1.0001 1.0001 0 1 0 21.9375 25.6875 L 17.4375 12.6875 A 1.0001 1.0001 0 0 0 16.34375 12 z M 16.5 16.03125 L 18.21875 21 L 14.78125 21 L 16.5 16.03125 z M 32.90625 18.96875 A 1.0001 1.0001 0 0 0 32.78125 19 A 1.0001 1.0001 0 0 0 32 20 L 32 22 L 27 22 A 1.0001 1.0001 0 0 0 26.90625 22 A 1.001098 1.001098 0 0 0 26.8125 22 A 1.0043849 1.0043849 0 0 0 27 24 L 32.8125 24 L 33.21875 24 L 35.71875 24 C 35.324172 25.310031 34.416363 27.534458 32.40625 29.5625 C 30.70463 27.883662 29.9375 26.46875 29.9375 26.46875 A 1.0001 1.0001 0 0 0 28.9375 25.9375 A 1.0001 1.0001 0 0 0 28.1875 27.4375 C 28.1875 27.4375 29.051329 28.997835 30.875 30.84375 C 29.736924 31.696598 28.376052 32.483645 26.6875 33.0625 A 1.0001 1.0001 0 1 0 27.3125 34.9375 C 29.350723 34.238773 30.996529 33.260728 32.34375 32.1875 C 33.496408 33.14749 34.871122 34.096396 36.5625 34.90625 A 1.0063276 1.0063276 0 0 0 37.4375 33.09375 C 36.016489 32.413352 34.835756 31.637065 33.84375 30.84375 C 36.411532 28.197982 37.411379 25.357405 37.78125 24 L 39 24 A 1.0001 1.0001 0 1 0 39 22 L 34 22 L 34 20 A 1.0001 1.0001 0 0 0 32.90625 18.96875 z"/>
</svg>
